<svg width="36" height="52" viewBox="0 0 36 52" fill="none" xmlns="http://www.w3.org/2000/svg">
<path d="M33.71 17.29L18.71 2.29C18.5227 2.10375 18.2692 1.99921 18.005 1.99921C17.7408 1.99921 17.4874 2.10375 17.3 2.29L2.30003 17.29C2.1362 17.4813 2.05059 17.7274 2.06032 17.9791C2.07004 18.2307 2.17437 18.4695 2.35246 18.6476C2.53056 18.8257 2.7693 18.93 3.02097 18.9397C3.27265 18.9494 3.51873 18.8638 3.71003 18.7L18 4.41L32.29 18.71C32.4813 18.8738 32.7274 18.9594 32.9791 18.9497C33.2308 18.94 33.4695 18.8357 33.6476 18.6576C33.8257 18.4795 33.93 18.2407 33.9397 17.9891C33.9495 17.7374 33.8639 17.4913 33.7 17.3L33.71 17.29Z" fill="#393939"/>
<path d="M28 32H23V22H13V32H8V18L6 20V32C6 32.5304 6.21071 33.0392 6.58579 33.4142C6.96086 33.7893 7.46957 34 8 34H15V24H21V34H28C28.5304 34 29.0391 33.7893 29.4142 33.4142C29.7893 33.0392 30 32.5304 30 32V19.76L28 17.76V32Z" fill="#393939"/>
<path d="M0.888 41.6H2.916V44.66H6.528V41.6H8.556V50H6.528V46.484H2.916V50H0.888V41.6ZM9.24159 45.8C9.24159 45.152 9.35359 44.56 9.57759 44.024C9.80959 43.488 10.1296 43.024 10.5376 42.632C10.9536 42.24 11.4336 41.94 11.9776 41.732C12.5296 41.516 13.1256 41.408 13.7656 41.408C14.4136 41.408 15.0136 41.516 15.5656 41.732C16.1176 41.94 16.5936 42.24 16.9936 42.632C17.4016 43.024 17.7176 43.488 17.9416 44.024C18.1736 44.56 18.2896 45.152 18.2896 45.8C18.2896 46.448 18.1776 47.044 17.9536 47.588C17.7376 48.132 17.4256 48.604 17.0176 49.004C16.6096 49.404 16.1296 49.716 15.5776 49.94C15.0336 50.156 14.4296 50.264 13.7656 50.264C13.1096 50.264 12.5056 50.156 11.9536 49.94C11.4016 49.716 10.9216 49.404 10.5136 49.004C10.1056 48.604 9.78959 48.132 9.56559 47.588C9.34959 47.044 9.24159 46.448 9.24159 45.8ZM11.3896 45.8C11.3896 46.296 11.4856 46.736 11.6776 47.12C11.8776 47.496 12.1576 47.792 12.5176 48.008C12.8776 48.224 13.2936 48.332 13.7656 48.332C14.2456 48.332 14.6616 48.224 15.0136 48.008C15.3656 47.792 15.6376 47.496 15.8296 47.12C16.0296 46.736 16.1296 46.296 16.1296 45.8C16.1296 45.304 16.0336 44.868 15.8416 44.492C15.6496 44.108 15.3776 43.808 15.0256 43.592C14.6736 43.376 14.2536 43.268 13.7656 43.268C13.2936 43.268 12.8776 43.376 12.5176 43.592C12.1576 43.808 11.8776 44.108 11.6776 44.492C11.4856 44.868 11.3896 45.304 11.3896 45.8ZM21.1491 45.728L20.6331 50H18.4971L19.8531 41.18L23.4411 46.292L27.0171 41.18L28.3851 50H26.2371L25.7331 45.728L23.4411 49.22L21.1491 45.728ZM29.0646 41.6H34.6446V43.268H31.0206V44.768H34.4046V46.412H31.0206V48.332H34.6446V50H29.0646V41.6Z" fill="#393939"/>
</svg>
