<svg width="133" height="56" viewBox="0 0 133 56" fill="none" xmlns="http://www.w3.org/2000/svg">
<g filter="url(#filter0_d_1_5823)">
<path d="M33.671 0C28.7894 0 24.1079 1.93608 20.6561 5.38234L9.39096 16.6294C5.93918 20.0757 4 24.7498 4 29.6235C4 39.7726 12.2406 48 22.4059 48C27.2875 48 31.9691 46.0638 35.4208 42.6176L43.213 34.8379C43.213 34.8378 43.2131 34.8381 43.213 34.8379L65.9167 12.1706C67.5652 10.5247 69.8011 9.6 72.1325 9.6C76.0357 9.6 79.3449 12.1399 80.4921 15.6545L87.6574 8.50074C84.3886 3.38934 78.6571 0 72.1325 0C67.251 0 62.5694 1.93608 59.1176 5.38234L28.6218 35.8294C26.9732 37.4754 24.7373 38.4 22.4059 38.4C17.551 38.4 13.6154 34.4707 13.6154 29.6235C13.6154 27.2958 14.5415 25.0635 16.1901 23.4176L27.4551 12.1706C29.1037 10.5247 31.3396 9.6 33.671 9.6C37.5744 9.6 40.8833 12.14 42.0306 15.6547L49.196 8.50091C45.9272 3.38944 40.1957 0 33.671 0Z" fill="black"/>
</g>
<g filter="url(#filter1_d_1_5823)">
<path d="M67.0833 35.8294C65.4348 37.4754 63.1989 38.4 60.8675 38.4C56.9647 38.4 53.6559 35.8608 52.5083 32.3467L45.3433 39.5003C48.6122 44.611 54.3434 48 60.8675 48C65.749 48 70.4306 46.0638 73.8824 42.6176L104.378 12.1706C106.027 10.5247 108.263 9.6 110.594 9.6C115.449 9.6 119.385 13.5293 119.385 18.3765C119.385 20.7042 118.458 22.9365 116.81 24.5824L105.545 35.8294C103.896 37.4754 101.66 38.4 99.329 38.4C95.4259 38.4 92.117 35.8603 90.9695 32.3459L83.8045 39.4997C87.0732 44.6109 92.8046 48 99.329 48C104.211 48 108.892 46.0638 112.344 42.6176L123.609 31.3706C127.061 27.9243 129 23.2502 129 18.3765C129 8.22742 120.759 0 110.594 0C105.712 0 101.031 1.93608 97.5792 5.38234L67.0833 35.8294Z" fill="black"/>
</g>
<defs>
<filter id="filter0_d_1_5823" x="0" y="0" width="91.6573" height="56" filterUnits="userSpaceOnUse" color-interpolation-filters="sRGB">
<feFlood flood-opacity="0" result="BackgroundImageFix"/>
<feColorMatrix in="SourceAlpha" type="matrix" values="0 0 0 0 0 0 0 0 0 0 0 0 0 0 0 0 0 0 127 0" result="hardAlpha"/>
<feOffset dy="4"/>
<feGaussianBlur stdDeviation="2"/>
<feComposite in2="hardAlpha" operator="out"/>
<feColorMatrix type="matrix" values="0 0 0 0 0 0 0 0 0 0 0 0 0 0 0 0 0 0 0.25 0"/>
<feBlend mode="normal" in2="BackgroundImageFix" result="effect1_dropShadow_1_5823"/>
<feBlend mode="normal" in="SourceGraphic" in2="effect1_dropShadow_1_5823" result="shape"/>
</filter>
<filter id="filter1_d_1_5823" x="41.3433" y="0" width="91.6567" height="56" filterUnits="userSpaceOnUse" color-interpolation-filters="sRGB">
<feFlood flood-opacity="0" result="BackgroundImageFix"/>
<feColorMatrix in="SourceAlpha" type="matrix" values="0 0 0 0 0 0 0 0 0 0 0 0 0 0 0 0 0 0 127 0" result="hardAlpha"/>
<feOffset dy="4"/>
<feGaussianBlur stdDeviation="2"/>
<feComposite in2="hardAlpha" operator="out"/>
<feColorMatrix type="matrix" values="0 0 0 0 0 0 0 0 0 0 0 0 0 0 0 0 0 0 0.25 0"/>
<feBlend mode="normal" in2="BackgroundImageFix" result="effect1_dropShadow_1_5823"/>
<feBlend mode="normal" in="SourceGraphic" in2="effect1_dropShadow_1_5823" result="shape"/>
</filter>
</defs>
</svg>
