<svg width="28" height="28" viewBox="0 0 28 28" fill="none" xmlns="http://www.w3.org/2000/svg">
<g clip-path="url(#clip0_1_6823)">
<path d="M12.2466 4.375C12.2466 5.53532 11.7856 6.64812 10.9652 7.46859C10.1447 8.28906 9.03188 8.75 7.87156 8.75C6.71124 8.75 5.59844 8.28906 4.77797 7.46859C3.9575 6.64812 3.49656 5.53532 3.49656 4.375C3.49656 3.21468 3.9575 2.10188 4.77797 1.28141C5.59844 0.460936 6.71124 0 7.87156 0C9.03188 0 10.1447 0.460936 10.9652 1.28141C11.7856 2.10188 12.2466 3.21468 12.2466 4.375ZM19.6403 11.4677C19.4762 11.3855 19.2904 11.357 19.1092 11.3862C18.928 11.4154 18.7605 11.5009 18.6306 11.6305L12.1381 19.873L7.48306 15.022C7.31499 14.9101 7.11339 14.8598 6.91245 14.8796C6.71151 14.8993 6.52359 14.988 6.38056 15.1305L6.10352e-05 22.75V26.25C6.10352e-05 26.7141 0.184435 27.1592 0.512624 27.4874C0.840813 27.8156 1.28593 28 1.75006 28H26.2501C26.4799 28 26.7074 27.9547 26.9198 27.8668C27.1321 27.7788 27.325 27.6499 27.4875 27.4874C27.65 27.3249 27.7789 27.132 27.8668 26.9197C27.9548 26.7074 28.0001 26.4798 28.0001 26.25V18.375L19.6403 11.4677Z" fill="#95ACCB"/>
</g>
<defs>
<clipPath id="clip0_1_6823">
<rect width="28" height="28" fill="white"/>
</clipPath>
</defs>
</svg>
